<svg id="icon-trash-2" viewBox="0 0 24 24">
    <path fill="none" stroke="#bdbdbd" style="stroke: var(--color1, #bdbdbd)" stroke-linejoin="round"
        stroke-linecap="round" stroke-miterlimit="4" stroke-width="1" d="M3 6h18"></path>
    <path fill="#bdbdbd" style="fill: var(--color1, #bdbdbd)"
        d="M19.5 6c0-0.276-0.224-0.5-0.5-0.5s-0.5 0.224-0.5 0.5h1zM5.5 6c0-0.276-0.224-0.5-0.5-0.5s-0.5 0.224-0.5 0.5h1zM7.5 6c0 0.276 0.224 0.5 0.5 0.5s0.5-0.224 0.5-0.5h-1zM15.5 6c0 0.276 0.224 0.5 0.5 0.5s0.5-0.224 0.5-0.5h-1zM18.5 6v14h1v-14h-1zM18.5 20c0 0.828-0.672 1.5-1.5 1.5v1c1.381 0 2.5-1.119 2.5-2.5h-1zM17 21.5h-10v1h10v-1zM7 21.5c-0.828 0-1.5-0.672-1.5-1.5h-1c0 1.381 1.119 2.5 2.5 2.5v-1zM5.5 20v-14h-1v14h1zM8.5 6v-2h-1v2h1zM8.5 4c0-0.828 0.672-1.5 1.5-1.5v-1c-1.381 0-2.5 1.119-2.5 2.5h1zM10 2.5h4v-1h-4v1zM14 2.5c0.828 0 1.5 0.672 1.5 1.5h1c0-1.381-1.119-2.5-2.5-2.5v1zM15.5 4v2h1v-2h-1z">
    </path>
    <path fill="none" stroke="#bdbdbd" style="stroke: var(--color1, #bdbdbd)" stroke-linejoin="round"
        stroke-linecap="round" stroke-miterlimit="4" stroke-width="1" d="M10 11v6"></path>
    <path fill="none" stroke="#bdbdbd" style="stroke: var(--color1, #bdbdbd)" stroke-linejoin="round"
        stroke-linecap="round" stroke-miterlimit="4" stroke-width="1" d="M14 11v6"></path>
</svg>